<svg xmlns="http://www.w3.org/2000/svg" viewBox="0 0 64 64" aria-label="The Crane 308">
  <defs><clipPath id="f"><circle cx="32" cy="32" r="29"/></clipPath></defs>
  <circle cx="32" cy="32" r="29" fill="#A6DAF4"/>
  <g clip-path="url(#f)" stroke="#232A35" stroke-width="3.5" stroke-linejoin="round" stroke-linecap="round">
    <circle cx="40" cy="38" r="19" fill="#FFCF4D" stroke-width="3"/>
    <path d="M29 66C30 52 36 42 34 30L47 29C49 42 45 54 49 66Z" fill="#7A8B99"/>
    <path d="M21 25C21 15 33 10 42 14C49 18 49 27 47 32C40 36 28 34 21 29Z" fill="#7A8B99"/>
    <path d="M30 29C36 31 42 31 47 29C45 34 36 35 30 32Z" fill="#FFFFFF" stroke="none"/>
    <path d="M23 21C25 14 33 12 38 15L35 25C30 26 26 24 23 21Z" fill="#C8323C" stroke-width="2.5"/>
    <circle cx="31" cy="21" r="2" fill="#232A35" stroke="none"/>
    <path d="M22 21L3 28L22 29Z" fill="#4A5462" stroke-width="2.5"/>
  </g>
  <circle cx="32" cy="32" r="29" fill="none" stroke="#232A35" stroke-width="4"/>
</svg>
