<svg xmlns="http://www.w3.org/2000/svg" viewBox="-800 0 2800 260" role="img" aria-label="Cartoon Tupelo, Mississippi skyline: the Lee County courthouse dome, a water tower, Main Street storefronts, the neon arrow sign, black gum trees and TVA power lines at night">
  <g stroke="#141A3A" stroke-width="4" stroke-linejoin="round" stroke-linecap="round">
    <!-- sky -->
    <path d="M1092 32A44 44 0 1 0 1124 104A36 36 0 0 1 1092 32Z" fill="#FFD978"/><circle cx="1062" cy="66" r="3.5" fill="#141A3A" stroke="none"/><g fill="#FFD978" stroke-width="2.5"><path d="M900 40l3 8 8 3-8 3-3 8-3-8-8-3 8-3z"/><path d="M420 34l3 8 8 3-8 3-3 8-3-8-8-3 8-3z"/><path d="M-260 30l3 8 8 3-8 3-3 8-3-8-8-3 8-3z"/><path d="M1420 24l3 8 8 3-8 3-3 8-3-8-8-3 8-3z"/><path d="M160 26l3 8 8 3-8 3-3 8-3-8-8-3 8-3z"/><path d="M1760 40l3 8 8 3-8 3-3 8-3-8-8-3 8-3z"/></g><g fill="#FFD978" stroke="none"><circle cx="560" cy="18" r="2.5"/><circle cx="740" cy="30" r="2.5"/><circle cx="330" cy="60" r="2.5"/><circle cx="980" cy="16" r="2.5"/><circle cx="1240" cy="60" r="2.5"/><circle cx="-480" cy="20" r="2.5"/><circle cx="-60" cy="56" r="2.5"/><circle cx="1650" cy="70" r="2.5"/><circle cx="1950" cy="20" r="2.5"/><circle cx="260" cy="90" r="2.5"/></g>
    <path transform="translate(160 52) scale(1)" d="M0 0a18 18 0 0 1 34-8a22 22 0 0 1 40 8a14 14 0 0 1 0 28h-74a14 14 0 0 1 0-28z" fill="#C9CFF0" vector-effect="non-scaling-stroke"/><path transform="translate(1640 40) scale(1)" d="M0 0a18 18 0 0 1 34-8a22 22 0 0 1 40 8a14 14 0 0 1 0 28h-74a14 14 0 0 1 0-28z" fill="#C9CFF0" vector-effect="non-scaling-stroke"/><path transform="translate(-700 52) scale(0.8)" d="M0 0a18 18 0 0 1 34-8a22 22 0 0 1 40 8a14 14 0 0 1 0 28h-74a14 14 0 0 1 0-28z" fill="#C9CFF0" vector-effect="non-scaling-stroke"/>
    <!-- hills -->
    <path d="M-810 192Q-620 150 -420 180T-10 188Q150 148 300 178T600 172T900 178T1210 188Q1420 150 1620 182T2010 186V216H-810Z" fill="#93D0A2"/>
    <!-- TVA power: lattice towers out of town, utility poles near it -->
    <path d="M-456 212L-428 80H-412L-384 212M-428 80L-420 50L-412 80M-450 90H-390M-442 62H-398M-450 190L-402 120M-390 190L-438 120M-434 130L-408 92M-406 130L-432 92M-442 170H-398" fill="none" stroke-width="3.5"/><path d="M1604 212L1632 80H1648L1676 212M1632 80L1640 50L1648 80M1610 90H1670M1618 62H1662M1610 190L1658 120M1670 190L1622 120M1626 130L1652 92M1654 130L1628 92M1618 170H1662" fill="none" stroke-width="3.5"/>
    <path d="M-700 212V118M-716 126H-684" fill="none" stroke-width="5"/><path d="M-160 212V118M-176 126H-144" fill="none" stroke-width="5"/><path d="M1360 212V118M1344 126H1376" fill="none" stroke-width="5"/><path d="M1900 212V118M1884 126H1916" fill="none" stroke-width="5"/>
    <path d="M-716 126Q-583.0 148 -450 80M-684 126Q-537.0 148 -390 80M-436 80Q-306.0 148 -176 126M-404 80Q-274.0 148 -144 126M1344 126Q1477.0 148 1610 80M1376 126Q1523.0 148 1670 80M1624 80Q1754.0 148 1884 126M1656 80Q1786.0 148 1916 126" fill="none" stroke-width="2.5"/>
    <path d="M-560 212v-32" fill="none"/><path d="M-560 120C-534 120 -534 178 -560 178C-586 178 -586 120 -560 120Z" fill="#3E9B5F"/><path d="M-250 212v-26" fill="none"/><path d="M-250 126C-224 126 -224 184 -250 184C-276 184 -276 126 -250 126Z" fill="#D2483E"/><path d="M1500 212v-32" fill="none"/><path d="M1500 120C1526 120 1526 178 1500 178C1474 178 1474 120 1500 120Z" fill="#D2483E"/><path d="M1780 212v-26" fill="none"/><path d="M1780 126C1806 126 1806 184 1780 184C1754 184 1754 126 1780 126Z" fill="#3E9B5F"/>
        <!-- water tower: cone roof, a bolt on the tank -->
    <path d="M100 212l12-76M160 212l-12-76M130 140v72M104 186h52M108 162h44M104 186l44-24M156 186l-44-24" fill="none"/>
    <path d="M78 136h104" fill="none" stroke-width="5"/>
    <path d="M86 92H174V128Q174 140 130 140Q86 140 86 128Z" fill="#FFB938"/>
    <path d="M82 94L130 58L178 94Z" fill="#24306B"/>
    <path d="M130 58v-10" fill="none"/><circle cx="130" cy="45" r="4" fill="#FFB938"/>
    <path d="M135 98L120 120H131L124 136L142 112H131L139 98Z" fill="#24306B" stroke-width="3"/>
        <!-- Main Street storefronts -->
    <rect x="206" y="110" width="84" height="12" fill="#24306B"/>
    <rect x="212" y="122" width="72" height="90" fill="#D9714E"/>
    <rect x="300" y="128" width="62" height="84" fill="#FFB938"/>
    <path d="M296 128h70" fill="none" stroke-width="5"/>
    <rect x="372" y="100" width="66" height="112" fill="#7FC1F2"/>
    <path d="M368 100h74" fill="none" stroke-width="5"/>
    <g fill="#FFD978" stroke-width="3"><rect x="224" y="134" width="18" height="22"/><rect x="254" y="134" width="18" height="22"/><rect x="312" y="140" width="16" height="18"/><rect x="334" y="140" width="16" height="18"/><rect x="384" y="114" width="16" height="18"/><rect x="408" y="114" width="16" height="18"/><rect x="384" y="142" width="16" height="18"/><rect x="408" y="142" width="16" height="18"/></g>
    <path d="M212 168h72l-6 14h-60zM300 172h62l-5 12h-52zM372 172h66l-6 14h-54z" fill="#3E9B5F"/>
    <path d="M232 168l-3 14M250 168v14M266 168l3 14" fill="none" stroke="#FFFFFF" stroke-width="3"/>
    <g fill="#FFD978" stroke-width="3"><rect x="226" y="188" width="16" height="24"/><rect x="256" y="188" width="18" height="14"/><rect x="312" y="190" width="16" height="22"/><rect x="386" y="192" width="18" height="20"/><rect x="412" y="192" width="16" height="12"/></g>
    <!-- right block -->
    <rect x="918" y="118" width="58" height="94" fill="#D9714E"/>
    <rect x="980" y="140" width="74" height="72" fill="#F7E8C8"/>
    <rect x="914" y="108" width="66" height="12" fill="#24306B"/>
    <path d="M980 140h74l-6 14h-62z" fill="#FFB938"/>
    <g fill="#FFD978" stroke-width="3"><rect x="928" y="132" width="14" height="16"/><rect x="952" y="132" width="14" height="16"/><rect x="928" y="158" width="14" height="16"/><rect x="952" y="158" width="14" height="16"/><rect x="928" y="184" width="14" height="16"/><rect x="952" y="184" width="14" height="16"/><rect x="994" y="168" width="18" height="44"/><rect x="1024" y="168" width="20" height="18"/></g>
    <path d="M460 212v-22" fill="none"/><path d="M460 130C486 130 486 188 460 188C434 188 434 130 460 130Z" fill="#3E9B5F"/>
        <!-- Lee County courthouse: portico, drum and dome -->
    <path d="M574 72Q612 14 650 72Z" fill="#3E9B5F"/>
    <rect x="604" y="20" width="16" height="14" fill="#F7E8C8"/>
    <path d="M612 20v-12" fill="none"/><circle cx="612" cy="7" r="3.5" fill="#FFB938"/>
    <rect x="580" y="70" width="64" height="44" fill="#F7E8C8"/>
    <circle cx="612" cy="92" r="12" fill="#FFFFFF"/>
    <path d="M612 92v-8M612 92l6 4" fill="none" stroke-width="3"/>
    <rect x="474" y="114" width="276" height="14" fill="#D9714E"/>
    <rect x="482" y="128" width="260" height="84" fill="#F7E8C8"/>
    <path d="M546 128L612 96L678 128Z" fill="#F7E8C8"/>
    <path d="M574 122L612 104L650 122Z" fill="none" stroke-width="3"/>
    <rect x="562" y="136" width="10" height="64" fill="#FFFFFF"/><rect x="586" y="136" width="10" height="64" fill="#FFFFFF"/><rect x="610" y="136" width="10" height="64" fill="#FFFFFF"/><rect x="634" y="136" width="10" height="64" fill="#FFFFFF"/><rect x="658" y="136" width="10" height="64" fill="#FFFFFF"/>
    <rect x="550" y="200" width="124" height="12" fill="#F7E8C8"/>
    <g fill="#FFD978" stroke-width="3"><rect x="496" y="146" width="20" height="18"/><rect x="522" y="146" width="20" height="18"/><rect x="496" y="176" width="20" height="18"/><rect x="522" y="176" width="20" height="18"/><rect x="686" y="146" width="20" height="18"/><rect x="712" y="146" width="20" height="18"/><rect x="686" y="176" width="20" height="18"/><rect x="712" y="176" width="20" height="18"/></g>
    <path d="M770 212v-20" fill="none"/><path d="M770 132C796 132 796 190 770 190C744 190 744 132 770 132Z" fill="#D2483E"/>
        <!-- the neon arrow sign -->
    <path d="M804 212V100M852 212V100" fill="none" stroke-width="5"/>
    <path d="M784 52h86v-16l34 32-34 32v-16h-86z" fill="none" stroke="#FFB938" stroke-width="16" opacity="0.4"/>
    <path d="M784 52h86v-16l34 32-34 32v-16h-86z" fill="#FFB938"/>
    <path d="M799.8 61.85Q800.16 61.85 800.49 61.91Q800.81 61.97 801.03 62.27Q801.25 62.57 801.25 63.31Q801.25 64.04 801.03 64.35Q800.81 64.66 800.48 64.72Q800.14 64.78 799.78 64.78H797.16V73.48Q797.16 73.9 797.09 74.29Q797.01 74.68 796.66 74.92Q796.31 75.17 795.43 75.17Q794.6 75.17 794.24 74.91Q793.87 74.66 793.81 74.27Q793.74 73.88 793.74 73.46V64.78H791.1Q790.76 64.78 790.43 64.71Q790.09 64.64 789.88 64.34Q789.66 64.04 789.66 63.3Q789.66 62.57 789.88 62.27Q790.09 61.97 790.44 61.91Q790.78 61.85 791.12 61.85ZM808.92 75.38Q807.47 75.38 806.38 74.8Q805.29 74.22 804.55 73.27Q803.8 72.32 803.43 71.18Q803.06 70.04 803.06 68.92V63.6Q803.06 63.16 803.14 62.76Q803.22 62.37 803.58 62.11Q803.94 61.85 804.81 61.85Q805.69 61.85 806.05 62.11Q806.41 62.37 806.48 62.76Q806.56 63.16 806.56 63.62V68.92Q806.56 69.55 806.77 70.23Q806.98 70.92 807.5 71.4Q808.02 71.88 808.97 71.88Q809.69 71.88 810.23 71.51Q810.76 71.14 811.05 70.47Q811.35 69.79 811.35 68.9V63.51Q811.35 63.09 811.43 62.72Q811.52 62.35 811.88 62.1Q812.24 61.85 813.1 61.85Q813.97 61.85 814.32 62.12Q814.67 62.38 814.75 62.78Q814.82 63.18 814.82 63.62V68.96Q814.82 70.1 814.44 71.23Q814.06 72.36 813.31 73.3Q812.56 74.24 811.46 74.81Q810.36 75.38 808.92 75.38ZM818.75 75.15Q817.9 75.15 817.53 74.9Q817.17 74.64 817.1 74.23Q817.02 73.82 817.02 73.4V63.6Q817.02 63.18 817.1 62.78Q817.17 62.38 817.53 62.13Q817.9 61.87 818.77 61.87H822.55Q823.27 61.87 824.11 62.17Q824.94 62.46 825.69 63.07Q826.45 63.68 826.92 64.59Q827.4 65.5 827.4 66.75Q827.4 67.99 826.92 68.9Q826.45 69.81 825.69 70.41Q824.94 71.01 824.11 71.3Q823.27 71.6 822.53 71.6H820.5V73.42Q820.5 73.84 820.42 74.24Q820.35 74.64 819.99 74.9Q819.62 75.15 818.75 75.15ZM820.5 68.12H822.55Q822.8 68.12 823.12 68Q823.44 67.88 823.69 67.57Q823.94 67.27 823.94 66.73Q823.94 66.34 823.75 66.02Q823.56 65.71 823.24 65.53Q822.93 65.35 822.53 65.35H820.5ZM831.11 75.17Q830.26 75.17 829.9 74.91Q829.54 74.66 829.46 74.25Q829.38 73.84 829.38 73.42V63.6Q829.38 62.61 829.77 62.24Q830.16 61.87 831.17 61.87H838.12Q838.56 61.87 838.95 61.95Q839.34 62.02 839.6 62.38Q839.85 62.75 839.85 63.62Q839.85 64.47 839.6 64.84Q839.34 65.2 838.94 65.27Q838.54 65.35 838.1 65.35H832.86V67.04H836.38Q836.81 67.04 837.15 67.11Q837.5 67.17 837.71 67.48Q837.91 67.78 837.91 68.54Q837.91 69.26 837.71 69.58Q837.5 69.89 837.14 69.95Q836.77 70 836.34 70H832.86V71.69H838.12Q838.56 71.69 838.95 71.77Q839.34 71.85 839.6 72.21Q839.85 72.57 839.85 73.44Q839.85 74.3 839.6 74.66Q839.34 75.02 838.94 75.09Q838.54 75.17 838.1 75.17ZM843.8 75.17Q842.94 75.17 842.58 74.91Q842.22 74.66 842.14 74.25Q842.07 73.84 842.07 73.42V63.6Q842.07 63.18 842.14 62.78Q842.22 62.38 842.58 62.13Q842.94 61.87 843.82 61.87Q844.69 61.87 845.04 62.13Q845.39 62.38 845.47 62.78Q845.55 63.18 845.55 63.62V72.21H850.18Q850.54 72.21 850.88 72.26Q851.21 72.32 851.43 72.63Q851.64 72.95 851.64 73.69Q851.64 74.41 851.42 74.72Q851.19 75.04 850.86 75.1Q850.52 75.17 850.16 75.17ZM859.86 75.38Q858.48 75.38 857.27 74.86Q856.06 74.33 855.15 73.4Q854.24 72.47 853.72 71.25Q853.2 70.02 853.2 68.64Q853.2 67.19 853.7 65.94Q854.2 64.68 855.1 63.73Q855.99 62.78 857.18 62.25Q858.36 61.72 859.71 61.72Q861.1 61.72 862.31 62.24Q863.51 62.76 864.42 63.7Q865.34 64.63 865.85 65.87Q866.36 67.11 866.36 68.56Q866.36 69.97 865.86 71.2Q865.36 72.44 864.45 73.38Q863.55 74.32 862.38 74.85Q861.21 75.38 859.86 75.38ZM859.77 71.9Q860.42 71.9 860.99 71.65Q861.56 71.39 861.98 70.94Q862.41 70.5 862.65 69.88Q862.89 69.26 862.89 68.56Q862.89 67.86 862.64 67.25Q862.39 66.64 861.96 66.17Q861.54 65.71 860.98 65.45Q860.42 65.2 859.79 65.2Q859.14 65.2 858.58 65.45Q858.02 65.71 857.59 66.17Q857.17 66.64 856.92 67.25Q856.67 67.86 856.67 68.56Q856.67 69.24 856.92 69.85Q857.17 70.46 857.59 70.92Q858.02 71.39 858.58 71.65Q859.14 71.9 859.77 71.9Z" fill="#141A3A" stroke="none"/>
    <g fill="#FFFFFF" stroke="none" opacity="1"><circle cx="792" cy="56" r="2.6"/><circle cx="806" cy="56" r="2.6"/><circle cx="820" cy="56" r="2.6"/><circle cx="834" cy="56" r="2.6"/><circle cx="848" cy="56" r="2.6"/><circle cx="862" cy="56" r="2.6"/><circle cx="792" cy="80" r="2.6"/><circle cx="806" cy="80" r="2.6"/><circle cx="820" cy="80" r="2.6"/><circle cx="834" cy="80" r="2.6"/><circle cx="848" cy="80" r="2.6"/><circle cx="862" cy="80" r="2.6"/></g>
    <path d="M1100 212v-26" fill="none"/><path d="M1100 126C1126 126 1126 184 1100 184C1074 184 1074 126 1100 126Z" fill="#3E9B5F"/>
    <g fill="#FFE27A" stroke="none"><circle cx="1078" cy="150" r="2.6"/><circle cx="1112" cy="170" r="2.6"/><circle cx="1096" cy="190" r="2.6"/><circle cx="462" cy="150" r="2.6"/><circle cx="-300" cy="150" r="2.6"/><circle cx="-268" cy="176" r="2.6"/><circle cx="1500" cy="158" r="2.6"/><circle cx="1530" cy="184" r="2.6"/><circle cx="30" cy="170" r="2.6"/><circle cx="60" cy="150" r="2.6"/></g>
    <!-- Main Street: asphalt with an amber center line -->
    <path d="M-810 214H2010V264H-810Z" fill="#4A5274"/>
    <path d="M-800 238H2000" fill="none" stroke="#FFB938" stroke-width="5" stroke-dasharray="30 26"/>
  </g>
</svg>
