<svg xmlns="http://www.w3.org/2000/svg" viewBox="-800 0 2800 260" role="img" aria-label="Cartoon Medford, Oregon skyline: Mt. McLoughlin, a historic downtown tower and storefronts, pear orchards, vineyards, fir-covered hills and the Rogue River">
  <g stroke="#1D2633" stroke-width="4" stroke-linejoin="round" stroke-linecap="round">
    <path d="M290 66L300 66M275 101L282 108M240 116L240 126M205 101L198 108M190 66L180 66M205 31L198 24M240 16L240 6M275 31L282 24" fill="none"/><circle cx="240" cy="66" r="36" fill="#EBC74A"/>
    <path transform="translate(560 40) scale(1)" d="M0 0a18 18 0 0 1 34-8a22 22 0 0 1 40 8a14 14 0 0 1 0 28h-74a14 14 0 0 1 0-28z" fill="#FFFFFF" vector-effect="non-scaling-stroke"/><path transform="translate(1640 40) scale(1)" d="M0 0a18 18 0 0 1 34-8a22 22 0 0 1 40 8a14 14 0 0 1 0 28h-74a14 14 0 0 1 0-28z" fill="#FFFFFF" vector-effect="non-scaling-stroke"/><path transform="translate(-700 52) scale(0.8)" d="M0 0a18 18 0 0 1 34-8a22 22 0 0 1 40 8a14 14 0 0 1 0 28h-74a14 14 0 0 1 0-28z" fill="#FFFFFF" vector-effect="non-scaling-stroke"/>
        <!-- Mt. McLoughlin -->
    <path d="M700 200L940 26L1180 200Z" fill="#7A8DB3"/>
    <path d="M940 26L902 60L918 54L928 68L942 56L956 70L966 56L980 60Z" fill="#FFFFFF"/>
    <path d="M940 64L912 120M952 80L972 126" fill="none" stroke-width="3" opacity="0.4"/>
    <!-- fir hills -->
    <path d="M-810 186Q-620 140 -420 172T-10 180Q150 140 300 170T600 168T900 172T1210 180Q1420 140 1620 174T2010 178V216H-810Z" fill="#9FCF9A"/>
    <path d="M-760 146L-740.68 192H-779.32Z" fill="#2F6B3F" stroke-width="3"/><path d="M-720 152L-705.72 186H-734.28Z" fill="#2F6B3F" stroke-width="3"/><path d="M-160 156L-143.2 196H-176.8Z" fill="#2F6B3F" stroke-width="3"/><path d="M-120 162L-107.4 192H-132.6Z" fill="#2F6B3F" stroke-width="3"/><path d="M1010 160L1026.8 200H993.2Z" fill="#2F6B3F" stroke-width="3"/><path d="M1050 144L1071.84 196H1028.16Z" fill="#2F6B3F" stroke-width="3"/><path d="M1094 164L1109.12 200H1078.88Z" fill="#2F6B3F" stroke-width="3"/><path d="M1140 150L1159.32 196H1120.68Z" fill="#2F6B3F" stroke-width="3"/><path d="M1960 152L1978.48 196H1941.52Z" fill="#2F6B3F" stroke-width="3"/><path d="M1600 152L1615.96 190H1584.04Z" fill="#2F6B3F" stroke-width="3"/>
    <!-- vineyard and pear orchard out of town -->
    <path d="M-620 212V176" fill="none" stroke-width="3.5"/><path d="M-638 184Q-620 168 -602 184Q-620 196 -638 184Z" fill="#2F6B3F" stroke-width="3"/><g fill="#B66AA2" stroke-width="2"><circle cx="-624" cy="194" r="4"/><circle cx="-616" cy="194" r="4"/><circle cx="-620" cy="201" r="4"/></g><path d="M-574 212V176" fill="none" stroke-width="3.5"/><path d="M-592 184Q-574 168 -556 184Q-574 196 -592 184Z" fill="#2F6B3F" stroke-width="3"/><g fill="#B66AA2" stroke-width="2"><circle cx="-578" cy="194" r="4"/><circle cx="-570" cy="194" r="4"/><circle cx="-574" cy="201" r="4"/></g><path d="M-528 212V176" fill="none" stroke-width="3.5"/><path d="M-546 184Q-528 168 -510 184Q-528 196 -546 184Z" fill="#2F6B3F" stroke-width="3"/><g fill="#B66AA2" stroke-width="2"><circle cx="-532" cy="194" r="4"/><circle cx="-524" cy="194" r="4"/><circle cx="-528" cy="201" r="4"/></g><path d="M-482 212V176" fill="none" stroke-width="3.5"/><path d="M-500 184Q-482 168 -464 184Q-482 196 -500 184Z" fill="#2F6B3F" stroke-width="3"/><g fill="#B66AA2" stroke-width="2"><circle cx="-486" cy="194" r="4"/><circle cx="-478" cy="194" r="4"/><circle cx="-482" cy="201" r="4"/></g><path d="M-436 212V176" fill="none" stroke-width="3.5"/><path d="M-454 184Q-436 168 -418 184Q-436 196 -454 184Z" fill="#2F6B3F" stroke-width="3"/><g fill="#B66AA2" stroke-width="2"><circle cx="-440" cy="194" r="4"/><circle cx="-432" cy="194" r="4"/><circle cx="-436" cy="201" r="4"/></g><path d="M-390 212V176" fill="none" stroke-width="3.5"/><path d="M-408 184Q-390 168 -372 184Q-390 196 -408 184Z" fill="#2F6B3F" stroke-width="3"/><g fill="#B66AA2" stroke-width="2"><circle cx="-394" cy="194" r="4"/><circle cx="-386" cy="194" r="4"/><circle cx="-390" cy="201" r="4"/></g><path d="M-344 212V176" fill="none" stroke-width="3.5"/><path d="M-362 184Q-344 168 -326 184Q-344 196 -362 184Z" fill="#2F6B3F" stroke-width="3"/><g fill="#B66AA2" stroke-width="2"><circle cx="-348" cy="194" r="4"/><circle cx="-340" cy="194" r="4"/><circle cx="-344" cy="201" r="4"/></g><path d="M-298 212V176" fill="none" stroke-width="3.5"/><path d="M-316 184Q-298 168 -280 184Q-298 196 -316 184Z" fill="#2F6B3F" stroke-width="3"/><g fill="#B66AA2" stroke-width="2"><circle cx="-302" cy="194" r="4"/><circle cx="-294" cy="194" r="4"/><circle cx="-298" cy="201" r="4"/></g><path d="M-640 180H-278" fill="none" stroke-width="2.5"/>
    <path d="M1300 212v-20" fill="none"/><circle cx="1300" cy="168" r="24" fill="#9FCF9A"/><path d="M1288 158c3 0 3 3 4 5c2 3 1 7-4 7s-6-4-4-7c1-2 1-5 4-5z" fill="#EBC74A" stroke-width="2"/><path d="M1308 152c3 0 3 3 4 5c2 3 1 7-4 7s-6-4-4-7c1-2 1-5 4-5z" fill="#EBC74A" stroke-width="2"/><path d="M1304 172c3 0 3 3 4 5c2 3 1 7-4 7s-6-4-4-7c1-2 1-5 4-5z" fill="#EBC74A" stroke-width="2"/><path d="M1294 172c3 0 3 3 4 5c2 3 1 7-4 7s-6-4-4-7c1-2 1-5 4-5z" fill="#EBC74A" stroke-width="2"/><path d="M1380 212v-18" fill="none"/><circle cx="1380" cy="172" r="22" fill="#9FCF9A"/><path d="M1368 162c3 0 3 3 4 5c2 3 1 7-4 7s-6-4-4-7c1-2 1-5 4-5z" fill="#EBC74A" stroke-width="2"/><path d="M1388 156c3 0 3 3 4 5c2 3 1 7-4 7s-6-4-4-7c1-2 1-5 4-5z" fill="#EBC74A" stroke-width="2"/><path d="M1384 176c3 0 3 3 4 5c2 3 1 7-4 7s-6-4-4-7c1-2 1-5 4-5z" fill="#EBC74A" stroke-width="2"/><path d="M1374 176c3 0 3 3 4 5c2 3 1 7-4 7s-6-4-4-7c1-2 1-5 4-5z" fill="#EBC74A" stroke-width="2"/><path d="M1460 212v-20" fill="none"/><circle cx="1460" cy="168" r="24" fill="#9FCF9A"/><path d="M1448 158c3 0 3 3 4 5c2 3 1 7-4 7s-6-4-4-7c1-2 1-5 4-5z" fill="#EBC74A" stroke-width="2"/><path d="M1468 152c3 0 3 3 4 5c2 3 1 7-4 7s-6-4-4-7c1-2 1-5 4-5z" fill="#EBC74A" stroke-width="2"/><path d="M1464 172c3 0 3 3 4 5c2 3 1 7-4 7s-6-4-4-7c1-2 1-5 4-5z" fill="#EBC74A" stroke-width="2"/><path d="M1454 172c3 0 3 3 4 5c2 3 1 7-4 7s-6-4-4-7c1-2 1-5 4-5z" fill="#EBC74A" stroke-width="2"/><path d="M1720 212v-18" fill="none"/><circle cx="1720" cy="172" r="22" fill="#9FCF9A"/><path d="M1708 162c3 0 3 3 4 5c2 3 1 7-4 7s-6-4-4-7c1-2 1-5 4-5z" fill="#EBC74A" stroke-width="2"/><path d="M1728 156c3 0 3 3 4 5c2 3 1 7-4 7s-6-4-4-7c1-2 1-5 4-5z" fill="#EBC74A" stroke-width="2"/><path d="M1724 176c3 0 3 3 4 5c2 3 1 7-4 7s-6-4-4-7c1-2 1-5 4-5z" fill="#EBC74A" stroke-width="2"/><path d="M1714 176c3 0 3 3 4 5c2 3 1 7-4 7s-6-4-4-7c1-2 1-5 4-5z" fill="#EBC74A" stroke-width="2"/><path d="M1800 212v-20" fill="none"/><circle cx="1800" cy="168" r="24" fill="#9FCF9A"/><path d="M1788 158c3 0 3 3 4 5c2 3 1 7-4 7s-6-4-4-7c1-2 1-5 4-5z" fill="#EBC74A" stroke-width="2"/><path d="M1808 152c3 0 3 3 4 5c2 3 1 7-4 7s-6-4-4-7c1-2 1-5 4-5z" fill="#EBC74A" stroke-width="2"/><path d="M1804 172c3 0 3 3 4 5c2 3 1 7-4 7s-6-4-4-7c1-2 1-5 4-5z" fill="#EBC74A" stroke-width="2"/><path d="M1794 172c3 0 3 3 4 5c2 3 1 7-4 7s-6-4-4-7c1-2 1-5 4-5z" fill="#EBC74A" stroke-width="2"/>
    <path d="M60 212v-18" fill="none"/><circle cx="60" cy="170" r="24" fill="#9FCF9A"/><path d="M48 160c3 0 3 3 4 5c2 3 1 7-4 7s-6-4-4-7c1-2 1-5 4-5z" fill="#EBC74A" stroke-width="2"/><path d="M68 154c3 0 3 3 4 5c2 3 1 7-4 7s-6-4-4-7c1-2 1-5 4-5z" fill="#EBC74A" stroke-width="2"/><path d="M64 174c3 0 3 3 4 5c2 3 1 7-4 7s-6-4-4-7c1-2 1-5 4-5z" fill="#EBC74A" stroke-width="2"/><path d="M54 174c3 0 3 3 4 5c2 3 1 7-4 7s-6-4-4-7c1-2 1-5 4-5z" fill="#EBC74A" stroke-width="2"/><path d="M130 212v-16" fill="none"/><circle cx="130" cy="176" r="20" fill="#9FCF9A"/><path d="M118 166c3 0 3 3 4 5c2 3 1 7-4 7s-6-4-4-7c1-2 1-5 4-5z" fill="#EBC74A" stroke-width="2"/><path d="M138 160c3 0 3 3 4 5c2 3 1 7-4 7s-6-4-4-7c1-2 1-5 4-5z" fill="#EBC74A" stroke-width="2"/><path d="M134 180c3 0 3 3 4 5c2 3 1 7-4 7s-6-4-4-7c1-2 1-5 4-5z" fill="#EBC74A" stroke-width="2"/><path d="M124 180c3 0 3 3 4 5c2 3 1 7-4 7s-6-4-4-7c1-2 1-5 4-5z" fill="#EBC74A" stroke-width="2"/>
        <!-- historic tower downtown -->
    <rect x="420" y="40" width="82" height="172" fill="#F8F2E2"/>
    <rect x="414" y="30" width="94" height="12" fill="#1E9A96"/>
    <path d="M461 30V8" fill="none"/><path d="M461 9l18 5-18 5z" fill="#7A2E66"/>
    <g fill="#FFF8E6" stroke-width="3"><rect x="432" y="52" width="10" height="14"/><rect x="449" y="52" width="10" height="14"/><rect x="466" y="52" width="10" height="14"/><rect x="483" y="52" width="10" height="14"/><rect x="432" y="76" width="10" height="14"/><rect x="449" y="76" width="10" height="14"/><rect x="466" y="76" width="10" height="14"/><rect x="483" y="76" width="10" height="14"/><rect x="432" y="100" width="10" height="14"/><rect x="449" y="100" width="10" height="14"/><rect x="466" y="100" width="10" height="14"/><rect x="483" y="100" width="10" height="14"/><rect x="432" y="124" width="10" height="14"/><rect x="449" y="124" width="10" height="14"/><rect x="466" y="124" width="10" height="14"/><rect x="483" y="124" width="10" height="14"/><rect x="432" y="148" width="10" height="14"/><rect x="449" y="148" width="10" height="14"/><rect x="466" y="148" width="10" height="14"/><rect x="483" y="148" width="10" height="14"/><rect x="432" y="172" width="10" height="14"/><rect x="449" y="172" width="10" height="14"/><rect x="466" y="172" width="10" height="14"/><rect x="483" y="172" width="10" height="14"/></g>
    <rect x="436" y="196" width="50" height="16" fill="#1E9A96"/>
    <!-- arched-window bank -->
    <rect x="512" y="110" width="118" height="102" fill="#F6DE85"/>
    <rect x="506" y="100" width="130" height="12" fill="#7A2E66"/>
    <g fill="#FFF8E6" stroke-width="3">
      <path d="M526 172v-30a10 10 0 0 1 20 0v30z"/><path d="M561 172v-30a10 10 0 0 1 20 0v30z"/><path d="M596 172v-30a10 10 0 0 1 20 0v30z"/>
    </g>
    <path d="M556 212v-24a15 15 0 0 1 30 0v24z" fill="#137A77"/>
    <!-- storefronts -->
    <rect x="180" y="124" width="66" height="88" fill="#C76B4E"/>
    <rect x="252" y="140" width="60" height="72" fill="#B66AA2"/>
    <rect x="318" y="112" width="60" height="100" fill="#86D6CF"/>
    <path d="M176 124h74M314 112h68" fill="none" stroke-width="5"/>
    <g fill="#FFF8E6" stroke-width="3"><rect x="192" y="138" width="16" height="18"/><rect x="218" y="138" width="16" height="18"/><rect x="264" y="152" width="14" height="16"/><rect x="286" y="152" width="14" height="16"/><rect x="330" y="124" width="14" height="18"/><rect x="352" y="124" width="14" height="18"/><rect x="330" y="152" width="14" height="18"/><rect x="352" y="152" width="14" height="18"/></g>
    <path d="M180 176h66l-6 12h-54zM252 178h60l-5 12h-50zM318 178h60l-5 12h-50z" fill="#EBC74A"/>
    <g fill="#FFF8E6" stroke-width="3"><rect x="192" y="192" width="18" height="20"/><rect x="266" y="194" width="30" height="18"/><rect x="330" y="194" width="16" height="18"/></g>
    <rect x="650" y="132" width="70" height="80" fill="#F8F2E2"/>
    <path d="M650 132h70l-6 14h-58z" fill="#1E9A96"/>
    <rect x="726" y="150" width="56" height="62" fill="#C76B4E"/>
    <path d="M722 150h64" fill="none" stroke-width="5"/>
    <g fill="#FFF8E6" stroke-width="3"><rect x="662" y="160" width="16" height="52"/><rect x="690" y="160" width="18" height="18"/><rect x="738" y="162" width="14" height="16"/><rect x="758" y="162" width="14" height="16"/><rect x="740" y="188" width="26" height="24"/></g>
    <path d="M840 212v-18" fill="none"/><circle cx="840" cy="172" r="22" fill="#9FCF9A"/><path d="M828 162c3 0 3 3 4 5c2 3 1 7-4 7s-6-4-4-7c1-2 1-5 4-5z" fill="#EBC74A" stroke-width="2"/><path d="M848 156c3 0 3 3 4 5c2 3 1 7-4 7s-6-4-4-7c1-2 1-5 4-5z" fill="#EBC74A" stroke-width="2"/><path d="M844 176c3 0 3 3 4 5c2 3 1 7-4 7s-6-4-4-7c1-2 1-5 4-5z" fill="#EBC74A" stroke-width="2"/><path d="M834 176c3 0 3 3 4 5c2 3 1 7-4 7s-6-4-4-7c1-2 1-5 4-5z" fill="#EBC74A" stroke-width="2"/><path d="M920 212v-16" fill="none"/><circle cx="920" cy="176" r="20" fill="#9FCF9A"/><path d="M908 166c3 0 3 3 4 5c2 3 1 7-4 7s-6-4-4-7c1-2 1-5 4-5z" fill="#EBC74A" stroke-width="2"/><path d="M928 160c3 0 3 3 4 5c2 3 1 7-4 7s-6-4-4-7c1-2 1-5 4-5z" fill="#EBC74A" stroke-width="2"/><path d="M924 180c3 0 3 3 4 5c2 3 1 7-4 7s-6-4-4-7c1-2 1-5 4-5z" fill="#EBC74A" stroke-width="2"/><path d="M914 180c3 0 3 3 4 5c2 3 1 7-4 7s-6-4-4-7c1-2 1-5 4-5z" fill="#EBC74A" stroke-width="2"/>
    <!-- the Rogue River -->
    <path d="M-810 214H2010V264H-810Z" fill="#1E9A96"/>
    <path d="M60 238q15-10 30 0t30 0M300 246q15-10 30 0t30 0M560 236q15-10 30 0t30 0M820 246q15-10 30 0t30 0M1060 236q15-10 30 0t30 0M-640 244q15-10 30 0t30 0M-380 236q15-10 30 0t30 0M1340 244q15-10 30 0t30 0M1620 236q15-10 30 0t30 0M1880 244q15-10 30 0t30 0M-120 246q15-10 30 0t30 0M1600 250q15-10 30 0t30 0" fill="none" stroke="#fff" stroke-width="4"/>
  </g>
</svg>
